<?xml version="1.0" encoding="UTF-8" standalone="no"?>
<!DOCTYPE svg PUBLIC "-//W3C//DTD SVG 1.1//EN" "http://www.w3.org/Graphics/SVG/1.1/DTD/svg11.dtd">
<svg
  version="1.1"
  xmlns="http://www.w3.org/2000/svg"
  xml:space="preserve"
  width="100%"
  height="100%"
  viewBox="0 0 512 512"
  style="fill-rule:evenodd;clip-rule:evenodd;stroke-linejoin:round;stroke-miterlimit:2;"
>
  <g id="logo">
    <path
      id="logo-background"
      d="M512,25.6L512,486.4C512,500.529 500.529,512 486.4,512L25.6,512C11.471,512 0,500.529 0,486.4L0,25.6C0,11.471 11.471,0 25.6,0L486.4,0C500.529,0 512,11.471 512,25.6Z"
      style="fill:#FFFFFF;"
    />
    <g id="logo-shapes" style="fill:#202830;">
      <path d="M192,126.4L192,177.6C192,181.132 189.132,184 185.6,184L134.4,184C130.868,184 128,181.132 128,177.6L128,126.4C128,122.868 130.868,120 134.4,120L185.6,120C189.132,120 192,122.868 192,126.4Z"/>
      <path d="M192,222.4L192,433.6C192,437.132 189.132,440 185.6,440L134.4,440C130.868,440 128,437.132 128,433.6L128,222.4C128,218.868 130.868,216 134.4,216L185.6,216C189.132,216 192,218.868 192,222.4Z"/>
      <path d="M288,78.4L288,353.6C288,357.132 285.132,360 281.6,360L230.4,360C226.868,360 224,357.132 224,353.6L224,78.4C224,74.868 226.868,72 230.4,72L281.6,72C285.132,72 288,74.868 288,78.4Z"/>
      <path d="M384,222.4L384,353.6C384,357.132 381.132,360 377.6,360L326.4,360C322.868,360 320,357.132 320,353.6L320,222.4C320,218.868 322.868,216 326.4,216L377.6,216C381.132,216 384,218.868 384,222.4Z"/>
    </g>
  </g>
</svg>
