<?xml version="1.0" encoding="UTF-8" standalone="no"?>
<!DOCTYPE svg PUBLIC "-//W3C//DTD SVG 1.1//EN" "http://www.w3.org/Graphics/SVG/1.1/DTD/svg11.dtd">
<svg
  version="1.1"
  xmlns="http://www.w3.org/2000/svg"
  xml:space="preserve"
  width="100%"
  height="100%"
  viewBox="0 0 512 512"
  style="fill-rule:evenodd;clip-rule:evenodd;stroke-linejoin:round;stroke-miterlimit:2;"
>
  <style>
    #logo-background path {
      fill: #FFFFFF;
    }

    #logo-shapes path {
      fill: #202830;
    }
  </style>

  <g id="logo">
    <g id="logo-background">
      <path d="M512,51.2L512,460.8C512,489.058 489.058,512 460.8,512L51.2,512C22.942,512 0,489.058 0,460.8L0,51.2C0,22.942 22.942,0 51.2,0L460.8,0C489.058,0 512,22.942 512,51.2Z"/>
    </g>
    <g id="logo-shapes">
      <path d="M192,86.4L192,137.6C192,141.132 189.132,144 185.6,144L134.4,144C130.868,144 128,141.132 128,137.6L128,86.4C128,82.868 130.868,80 134.4,80L185.6,80C189.132,80 192,82.868 192,86.4Z"/>
      <path d="M192,182.4L192,425.6C192,429.132 189.132,432 185.6,432L134.4,432C130.868,432 128,429.132 128,425.6L128,182.4C128,178.868 130.868,176 134.4,176L185.6,176C189.132,176 192,178.868 192,182.4Z"/>
      <path d="M288,86.4L288,361.6C288,365.132 285.132,368 281.6,368L230.4,368C226.868,368 224,365.132 224,361.6L224,86.4C224,82.868 226.868,80 230.4,80L281.6,80C285.132,80 288,82.868 288,86.4Z"/>
      <path d="M384,230.4L384,361.6C384,365.132 381.132,368 377.6,368L326.4,368C322.868,368 320,365.132 320,361.6L320,230.4C320,226.868 322.868,224 326.4,224L377.6,224C381.132,224 384,226.868 384,230.4Z"/>
    </g>
  </g>
</svg>
